# xmcd CD database file
#
# Track frame offsets:
#	150
#	16187
#	30242
#	47947
#	72465
#	84830
#	90627
#	102382
#	119202
#	131025
#	153955
#	178650
#	194792
#	219530
#	244952
#	265107
#	283785
#	301247
#
# Disc length: 4319 seconds
#
# Revision: 0
# Processed by: cddbd v1.5.2PL0 Copyright (c) Steve Scherf et al.
# Submitted via: CDex 1.51
#
DISCID=0610dd12
DTITLE=Various Artist - Blue - True color of Jazz
DYEAR=1900
DGENRE=Jazz
TTITLE0=Eleanara's Falcon - Glenn Paul
TTITLE1=Choro - Daniel Goyone
TTITLE2=Lisboa - Laliberte
TTITLE3=Caefree - R.Antonopoulos
TTITLE4=Yvan Ivanovitch - M. Portal
TTITLE5=Desilusion Java - Sclavis
TTITLE6=Noctume - Femandez
TTITLE7=The Leavin' - G. Paul
TTITLE8=Zajdi. Zajdi - Traditional
TTITLE9=Tempo - A. Ramano
TTITLE10=Doodlin' - H.Silver
TTITLE11=I Recall - Linx Wissels
TTITLE12=Les 400 Coups - Constantin
TTITLE13=Chick Corea - J.Rowey
TTITLE14=Hammage to Jobim - A.Panacci
TTITLE15=Someday my prince will come - P. Smith
TTITLE16=St. Thomas - S. Rollins
TTITLE17=Sing Sing Sing - Prima
EXTD=
EXTT0=
EXTT1=
EXTT2=
EXTT3=
EXTT4=
EXTT5=
EXTT6=
EXTT7=
EXTT8=
EXTT9=
EXTT10=
EXTT11=
EXTT12=
EXTT13=
EXTT14=
EXTT15=
EXTT16=
EXTT17=
PLAYORDER=
